PathFileType	4	(X/Y/Z)	C:\Users\chris\Documents\GitHub\baseballds\vids\pitch5_Sports2D\pitch5_Sports2D_m_person05.trc
DataRate	CameraRate	NumFrames	NumMarkers	Units	OrigDataRate	OrigDataStartFrame	OrigNumFrames
30	30	10	22	m	30	74	149
Frame#	Time	Hip			RHip			RKnee			RAnkle			RBigToe			RSmallToe			RHeel			LHip			LKnee			LAnkle			LBigToe			LSmallToe			LHeel			Neck			Head			Nose			RShoulder			RElbow			RWrist			LShoulder			LElbow			LWrist		
		X1	Y1	Z1	X2	Y2	Z2	X3	Y3	Z3	X4	Y4	Z4	X5	Y5	Z5	X6	Y6	Z6	X7	Y7	Z7	X8	Y8	Z8	X9	Y9	Z9	X10	Y10	Z10	X11	Y11	Z11	X12	Y12	Z12	X13	Y13	Z13	X14	Y14	Z14	X15	Y15	Z15	X16	Y16	Z16	X17	Y17	Z17	X18	Y18	Z18	X19	Y19	Z19	X20	Y20	Z20	X21	Y21	Z21	X22	Y22	Z22
74	2.466666666666667	2.9724796816759276	1.272648575599199	0.0	2.9769557717484854	1.2695604006387533	0.0	2.989099338016218	1.2420754213305636	0.0	2.9551191518281197	1.2487746825929917	0.0	2.9497939207438013	1.2396209262009528	0.0	2.947591961815592	1.238618936863693	0.0	2.951028198267928	1.2504700151387769	0.0	2.9692451519639995	1.2701566693250381	0.0	2.9733764980920876	1.243530061782831	0.0	2.9495252902849507	1.2475351488175621	0.0	2.9455940522263186	1.238761658752829	0.0	2.9426687985781026	1.23997439804676	0.0	2.947428828104005	1.2490888906381756	0.0	2.9809042586110746	1.3106323492615366	0.0	2.986137938437839	1.325161909580612	0.0	2.9896602430008565	1.31945818123736	0.0	2.977847476496546	1.3056030968002101	0.0	2.9715949932473413	1.2853358493792666	0.0	2.981523859528722	1.2732779466787776	0.0	2.977827180628932	1.305885053629447	0.0	2.971015897375467	1.289545483738234	0.0	2.983088057585497	1.2793369981869838	0.0
75	2.5	2.9724661284581857	1.2726551585014092	0.0	2.9769444460510543	1.2695663124063354	0.0	2.9890907661024344	1.2420826718293245	0.0	2.9551098873502686	1.2487822562735378	0.0	2.9497841010583867	1.239627382071523	0.0	2.947581497947432	1.2386264842470198	0.0	2.951024736067321	1.2504725440578126	0.0	2.9692293914044314	1.2701626852257393	0.0	2.9733631754043217	1.2435368347932028	0.0	2.9495140316947106	1.2475422482572198	0.0	2.9455837850348026	1.2387680103051428	0.0	2.942656678554653	1.2399804247781991	0.0	2.947418137416434	1.249095685689203	0.0	2.980893933237881	1.31063809969354	0.0	2.986127906429943	1.3251651175102284	0.0	2.989650539289127	1.3194636058639713	0.0	2.9778372678677116	1.305608558035448	0.0	2.971586922203057	1.2853417387672033	0.0	2.981511444553097	1.2732819608994872	0.0	2.977814637613668	1.305890666532484	0.0	2.971001923483686	1.2895515272701346	0.0	2.9830719620086614	1.2793415216090256	0.0
76	2.533333333333333	2.97246607341706	1.2726555522171332	0.0	2.9769443916921365	1.2695668048078133	0.0	2.989091034360312	1.2420826416778215	0.0	2.9551108219260236	1.2487825309615401	0.0	2.9497858207819574	1.239627584863654	0.0	2.9475826438678507	1.2386221195253337	0.0	2.9510155567471745	1.25047957092936	0.0	2.9692294371896075	1.2701632632861972	0.0	2.973364295871842	1.2435370105903671	0.0	2.949514802409793	1.2475421558019857	0.0	2.945584417453193	1.2387685920974467	0.0	2.9426580330889562	1.239981195392632	0.0	2.9474192626087414	1.249095770130651	0.0	2.9808944212084962	1.3106380888672189	0.0	2.986128066023416	1.3251650939199315	0.0	2.98965088481532	1.3194634976987496	0.0	2.977837459541904	1.3056084809736246	0.0	2.9715869367853207	1.2853417117300674	0.0	2.9815118926031268	1.2732823905442956	0.0	2.97781533615559	1.3058906548661773	0.0	2.971001740941896	1.289550739338874	0.0	2.9830725411259165	1.2793402622177097	0.0
77	2.5666666666666664	2.972535183696084	1.2726226773605436	0.0	2.977002127663217	1.2695375435617275	0.0	2.9891353160080714	1.2420455576232858	0.0	2.9551598978099167	1.2487443717366884	0.0	2.9498392136900846	1.239594998442273	0.0	2.947638243681471	1.2385753394822014	0.0	2.9510159151990343	1.2504799166747402	0.0	2.9693100102867827	1.2701336318972882	0.0	2.973434447194243	1.2435027536432848	0.0	2.949573752687104	1.247505725607999	0.0	2.9456380438311958	1.238737253631056	0.0	2.942722484305805	1.2399518720649423	0.0	2.947475981636965	1.2490612282263844	0.0	2.980948072121145	1.3106087018862271	0.0	2.986179599079248	1.3251486670110135	0.0	2.9897010921913516	1.3194355908645745	0.0	2.977889955113153	1.3055804458807465	0.0	2.9716281818555967	1.285311584531291	0.0	2.9815761394513864	1.2732627013419426	0.0	2.977880709589901	1.3058619686388029	0.0	2.971072758928159	1.2895183890540747	0.0	2.9831558315641304	1.279314785193704	0.0
78	2.6	2.9726658840414966	1.2725586279791632	0.0	2.9771113598622083	1.2694798095175666	0.0	2.989217510756723	1.2419757296114002	0.0	2.9552477370679546	1.2486709579840904	0.0	2.9499311900565095	1.2395324683889128	0.0	2.9477373150615254	1.2385093499617987	0.0	2.9510634689821105	1.2504446840109775	0.0	2.9694618274198663	1.2700747619029835	0.0	2.973561108973978	1.243437208969663	0.0	2.949681062902414	1.2474374496835348	0.0	2.9457360134791317	1.2386751431219734	0.0	2.9428371939709335	1.2398926000757235	0.0	2.9475772709623698	1.2489956123441541	0.0	2.9810468257408913	1.3105533004705496	0.0	2.986276033023385	1.325117787965649	0.0	2.989794074892017	1.3193834797551927	0.0	2.977988041606383	1.3055279338918875	0.0	2.9717059417052916	1.2852548690233059	0.0	2.98169509272125	1.2732233513632751	0.0	2.978000509638063	1.305807893917641	0.0	2.9712077104682573	1.289461364086635	0.0	2.983310052997778	1.2792731385534164	0.0
79	2.6333333333333333	2.972559595721306	1.2726056459459145	0.0	2.977022645413144	1.2695202911319128	0.0	2.9891464825554137	1.2420333383307656	0.0	2.955162877313765	1.2487272907126707	0.0	2.9498320911517255	1.2395808805139072	0.0	2.9476403349667213	1.2386237182544237	0.0	2.9511513780301137	1.2503764301459717	0.0	2.969336850165396	1.2701149901063395	0.0	2.9734418829588183	1.2434884632617924	0.0	2.949582520172505	1.2474946482123515	0.0	2.9456470323105406	1.2387179738670147	0.0	2.942724522445051	1.239930496447076	0.0	2.9474787607397133	1.2490481874886812	0.0	2.9809591987251283	1.3105988261387105	0.0	2.986194844066937	1.3251434051962678	0.0	2.9897131430694324	1.319427655743304	0.0	2.9779050557906293	1.3055720083700695	0.0	2.9716420516487427	1.2853016950197036	0.0	2.9815914730568993	1.273249642960957	0.0	2.9778927346468698	1.3058523445767032	0.0	2.9710997022941745	1.2895189590466365	0.0	2.983175735909788	1.279324653572861	0.0
80	2.6666666666666665	2.971691551031171	1.2730214645041806	0.0	2.9762973991356114	1.2698915233887915	0.0	2.9885926883162868	1.2424986534458267	0.0	2.9545541556804022	1.249208509695413	0.0	2.949175370998553	1.2399915710445635	0.0	2.9469513801412197	1.2391765428166621	0.0	2.9510744231069457	1.25042755470537	0.0	2.9683256971405902	1.2704915452651993	0.0	2.9725700476289956	1.2439199124883342	0.0	2.948848542036119	1.2479512629834209	0.0	2.944978798775938	1.239115989127947	0.0	2.9419260937772482	1.2403047040882393	0.0	2.9467755916847	1.2494824929708503	0.0	2.980289517016303	1.310967664754649	0.0	2.985549157954374	1.3253494423567307	0.0	2.9890855671556213	1.3197771442776114	0.0	2.977247539484424	1.3059233525714966	0.0	2.9711243762622503	1.285679698371028	0.0	2.980788454899976	1.2735002124537715	0.0	2.9770775505340272	1.3062123793035922	0.0	2.970206701854995	1.28991886506488	0.0	2.982134679131751	1.279634551330779	0.0
81	2.7	2.9705962458859934	1.2735660498854688	0.0	2.9753818244691286	1.2703853492754626	0.0	2.9879103430149048	1.2430825593704038	0.0	2.953838791460525	1.2498289443806407	0.0	2.9484421450019065	1.2405193594855424	0.0	2.9461465030818696	1.2396357272037306	0.0	2.950480262416994	1.2508725945245793	0.0	2.9670557711090475	1.2709967102266009	0.0	2.971533659869297	1.244472360540371	0.0	2.9479666808028147	1.2485208451098193	0.0	2.944172175983686	1.2396483610661486	0.0	2.9409947603144806	1.2408173473052215	0.0	2.9459517048173534	1.250033585729467	0.0	2.9794732459030633	1.3114312143698552	0.0	2.9847452912105608	1.3256074356517482	0.0	2.98831456335369	1.3202110706067758	0.0	2.976430524045396	1.3063612991589066	0.0	2.9704737381208446	1.2861539023528625	0.0	2.9798022340981682	1.2738387996332308	0.0	2.976089591736135	1.3066648048424785	0.0	2.9690730852867953	1.2903794065652723	0.0	2.980856018244555	1.2799562859118865	0.0
82	2.7333333333333334	2.972962243211511	1.272470226942229	0.0	2.9773577454358926	1.2694214323887683	0.0	2.9894508167867384	1.2418081678175126	0.0	2.9555974601836295	1.2485422683663652	0.0	2.9504122273226443	1.2394180267613182	0.0	2.9481459887786965	1.2376790744164354	0.0	2.949752007690234	1.2514513521547703	0.0	2.9698230699207153	1.2700270082912042	0.0	2.974030199459676	1.243311552024716	0.0	2.950050815227578	1.2472638541442995	0.0	2.9460625469077035	1.2386204085484303	0.0	2.9433146735109514	1.2398737461244524	0.0	2.947987906592382	1.2488556331674816	0.0	2.981352804903465	1.310422386530251	0.0	2.9865257169907693	1.325042100146851	0.0	2.990064519454291	1.319245157946539	0.0	2.9782465516202143	1.3053934966011274	0.0	2.971889593757418	1.2851183777014576	0.0	2.9820420062012016	1.2731981347004608	0.0	2.978388213655805	1.3056799446316083	0.0	2.971494229511537	1.2892062457278384	0.0	2.9837595471093143	1.278980838030981	0.0
83	2.7666666666666666	2.9830207104559587	1.2676211678617981	0.0	2.9857622372760204	1.265080516359778	0.0	2.995842502710154	1.2364213248592575	0.0	2.9625695281665263	1.2429456965518773	0.0	2.9578744750144974	1.2346443494017527	0.0	2.956029634804914	1.231641657173915	0.0	2.951411990059982	1.2502707879044999	0.0	2.9815306018274916	1.265617268323509	0.0	2.98403413356902	1.2382997040727666	0.0	2.9584873494511497	1.241982997530619	0.0	2.9537491956531516	1.2339618011070606	0.0	2.9524487970073916	1.235475071090182	0.0	2.956037920289705	1.2438183536452547	0.0	2.989068322727565	1.3061513343780466	0.0	2.9939908115591063	1.322657714158959	0.0	2.997304288270789	1.3152063732620736	0.0	2.9858459792951724	1.3013306146311896	0.0	2.977884187069551	1.2807425353401418	0.0	2.9913051949836764	1.2702600129122574	0.0	2.987771334665196	1.3015109311311372	0.0	2.9818524158707835	1.2846404397680693	0.0	2.9957687687481704	1.275497004844008	0.0
